<svg width="500" height="500" viewBox="0 0 500 500" fill="none" xmlns="http://www.w3.org/2000/svg">
<rect width="500" height="500" fill="#F5F5F5"/>
<rect width="500" height="500" fill="#E9E9E9"/>
<path d="M249.999 192.977L241.395 184.133C221.199 163.373 184.167 170.537 170.799 196.637C164.523 208.913 163.107 226.637 174.567 249.257C185.607 271.037 208.575 297.125 249.999 325.541C291.423 297.125 314.379 271.037 325.431 249.257C336.891 226.625 335.487 208.913 329.199 196.637C315.831 170.537 278.799 163.361 258.603 184.121L249.999 192.977ZM249.999 340.001C66.0027 218.417 193.347 123.521 247.887 173.717C248.607 174.377 249.315 175.061 249.999 175.769C250.676 175.061 251.38 174.381 252.111 173.729C306.639 123.497 433.995 218.405 249.999 340.001Z" fill="#A9A9A9"/>
</svg>
